# xmcd
#
# Track frame offsets:
#	150
#	15806
#	33762
#	51858
#	58974
#	76206
#	89731
#	105973
#	125015
#	141355
#	145965
#	162811
#	169896
#	189300
#	204721
#	226369
#	235999
#	255388
#
# Disc length: 3622 seconds
#
# Revision: 1
# Processed by: cddbd v1.4PL0 Copyright (c) Steve Scherf et al.
# Submitted via: EasyCDDAExtractor 5.1.0
#
DISCID=f00e2412
DTITLE=Moby - Play
DYEAR=1900
DGENRE=
TTITLE0=Honey
TTITLE1=Find My Baby
TTITLE2=Porcelain
TTITLE3=Why Does My Heart Feel so Bad
TTITLE4=South Side
TTITLE5=Reshing
TTITLE6=Bodyrock
TTITLE7=Natural Blues
TTITLE8=Machete
TTITLE9=7
TTITLE10=Run on
TTITLE11=Down Slow
TTITLE12=If Things Were perfect
TTITLE13=Everloving
TTITLE14=Inside
TTITLE15=Guitar Flute and String
TTITLE16=The Sky is Broken
TTITLE17=My Weakness
EXTD=
EXTT0=
EXTT1=
EXTT2=
EXTT3=
EXTT4=
EXTT5=
EXTT6=
EXTT7=
EXTT8=
EXTT9=
EXTT10=
EXTT11=
EXTT12=
EXTT13=
EXTT14=
EXTT15=
EXTT16=
EXTT17=
PLAYORDER=
